<svg width="176" height="307" viewBox="0 0 176 307" fill="none" xmlns="http://www.w3.org/2000/svg">
<circle cx="49.6411" cy="9.02563" r="9.02564" transform="rotate(-90 49.6411 9.02563)" fill="#282875"/>
<circle cx="81.2307" cy="40.6153" r="9.02564" transform="rotate(-90 81.2307 40.6153)" fill="#282875"/>
<circle cx="166.974" cy="99.2821" r="9.02564" transform="rotate(-90 166.974 99.2821)" fill="#3E3D81"/>
<circle cx="9.02564" cy="40.6153" r="9.02564" transform="rotate(-90 9.02564 40.6153)" fill="#5F5F98"/>
<circle cx="49.6411" cy="40.6153" r="9.02564" transform="rotate(-90 49.6411 40.6153)" fill="#78A1B9"/>
<circle cx="81.2307" cy="72.2052" r="9.02564" transform="rotate(-90 81.2307 72.2052)" fill="#529D8E"/>
<circle cx="162.462" cy="40.6153" r="9.02564" transform="rotate(-90 162.462 40.6153)" fill="#78A1B9"/>
<circle cx="126.359" cy="99.2821" r="9.02564" transform="rotate(-90 126.359 99.2821)" fill="#5F5F98"/>
<circle cx="49.6411" cy="99.2821" r="9.02564" transform="rotate(-90 49.6411 99.2821)" fill="#3E3D81"/>
<circle cx="126.359" cy="144.41" r="9.02564" transform="rotate(-90 126.359 144.41)" fill="#78A1B9"/>
<circle cx="166.974" cy="171.487" r="9.02564" transform="rotate(-90 166.974 171.487)" fill="#3E3D81"/>
<circle cx="49.6411" cy="121.846" r="9.02564" transform="rotate(-90 49.6411 121.846)" fill="#78A1B9"/>
<circle cx="81.2307" cy="144.41" r="9.02564" transform="rotate(-90 81.2307 144.41)" fill="#3E3D81"/>
<circle cx="166.974" cy="198.564" r="9.02564" transform="rotate(-90 166.974 198.564)" fill="#3E3D81"/>
<circle cx="9.02564" cy="144.41" r="9.02564" transform="rotate(-90 9.02564 144.41)" fill="#529D8E"/>
<circle cx="49.6411" cy="171.487" r="9.02564" transform="rotate(-90 49.6411 171.487)" fill="#5F5F98"/>
<circle cx="81.2307" cy="198.564" r="9.02564" transform="rotate(-90 81.2307 198.564)" fill="#282875"/>
<circle cx="126.359" cy="225.641" r="9.02564" transform="rotate(-90 126.359 225.641)" fill="#5F5F98"/>
<circle cx="166.974" cy="248.205" r="9.02564" transform="rotate(-90 166.974 248.205)" fill="#529D8E"/>
<circle cx="9.02564" cy="198.564" r="9.02564" transform="rotate(-90 9.02564 198.564)" fill="#3E3D81"/>
<circle cx="49.6411" cy="225.641" r="9.02564" transform="rotate(-90 49.6411 225.641)" fill="#3E3D81"/>
<circle cx="81.2307" cy="248.205" r="9.02564" transform="rotate(-90 81.2307 248.205)" fill="#78A1B9"/>
<circle cx="81.2307" cy="270.769" r="9.02564" transform="rotate(-90 81.2307 270.769)" fill="#5F5F98"/>
<circle cx="126.359" cy="297.846" r="9.02564" transform="rotate(-90 126.359 297.846)" fill="#78A1B9"/>
</svg>
