<svg width="115" height="200" viewBox="0 0 115 200" fill="none" xmlns="http://www.w3.org/2000/svg">
<circle cx="32.3531" cy="5.88236" r="5.88235" transform="rotate(-90 32.3531 5.88236)" fill="#C0BFE5" fill-opacity="1"/>
<circle cx="52.9412" cy="26.4706" r="5.88235" transform="rotate(-90 52.9412 26.4706)" fill="#C0BFE5" fill-opacity="1"/>
<circle cx="108.824" cy="64.7059" r="5.88235" transform="rotate(-90 108.824 64.7059)" fill="#C0BFE5" fill-opacity="1"/>
<circle cx="5.88235" cy="26.4706" r="5.88235" transform="rotate(-90 5.88235 26.4706)" fill="#C0BFE5" fill-opacity="1"/>
<circle cx="32.3531" cy="26.4706" r="5.88235" transform="rotate(-90 32.3531 26.4706)" fill="#C0BFE5" fill-opacity="1"/>
<circle cx="52.9412" cy="47.0588" r="5.88235" transform="rotate(-90 52.9412 47.0588)" fill="#C0BFE5" fill-opacity="1"/>
<circle cx="105.882" cy="26.4706" r="5.88235" transform="rotate(-90 105.882 26.4706)" fill="#C0BFE5" fill-opacity="1"/>
<circle cx="82.3529" cy="64.7059" r="5.88235" transform="rotate(-90 82.3529 64.7059)" fill="#C0BFE5" fill-opacity="1"/>
<circle cx="32.3531" cy="64.7059" r="5.88235" transform="rotate(-90 32.3531 64.7059)" fill="#C0BFE5" fill-opacity="1"/>
<circle cx="82.3529" cy="94.1177" r="5.88235" transform="rotate(-90 82.3529 94.1177)" fill="#C0BFE5" fill-opacity="1"/>
<circle cx="108.824" cy="111.765" r="5.88235" transform="rotate(-90 108.824 111.765)" fill="#C0BFE5" fill-opacity="1"/>
<circle cx="32.3531" cy="79.4118" r="5.88235" transform="rotate(-90 32.3531 79.4118)" fill="#C0BFE5" fill-opacity="1"/>
<circle cx="52.9412" cy="94.1177" r="5.88235" transform="rotate(-90 52.9412 94.1177)" fill="#C0BFE5" fill-opacity="1"/>
<circle cx="108.824" cy="129.412" r="5.88235" transform="rotate(-90 108.824 129.412)" fill="#C0BFE5" fill-opacity="1"/>
<circle cx="5.88235" cy="94.1177" r="5.88235" transform="rotate(-90 5.88235 94.1177)" fill="#C0BFE5" fill-opacity="1"/>
<circle cx="32.3531" cy="111.765" r="5.88235" transform="rotate(-90 32.3531 111.765)" fill="#C0BFE5" fill-opacity="1"/>
<circle cx="52.9412" cy="129.412" r="5.88235" transform="rotate(-90 52.9412 129.412)" fill="#C0BFE5" fill-opacity="1"/>
<circle cx="82.3529" cy="147.059" r="5.88235" transform="rotate(-90 82.3529 147.059)" fill="#C0BFE5" fill-opacity="1"/>
<circle cx="108.824" cy="161.765" r="5.88235" transform="rotate(-90 108.824 161.765)" fill="#C0BFE5" fill-opacity="1"/>
<circle cx="5.88235" cy="129.412" r="5.88235" transform="rotate(-90 5.88235 129.412)" fill="#C0BFE5" fill-opacity="1"/>
<circle cx="32.3531" cy="147.059" r="5.88235" transform="rotate(-90 32.3531 147.059)" fill="#C0BFE5" fill-opacity="1"/>
<circle cx="52.9412" cy="161.765" r="5.88235" transform="rotate(-90 52.9412 161.765)" fill="#C0BFE5" fill-opacity="1"/>
<circle cx="52.9412" cy="176.471" r="5.88235" transform="rotate(-90 52.9412 176.471)" fill="#C0BFE5" fill-opacity="1"/>
<circle cx="82.3529" cy="194.118" r="5.88235" transform="rotate(-90 82.3529 194.118)" fill="#C0BFE5" fill-opacity="1"/>
</svg>
