<svg width="263" height="76" viewBox="0 0 263 76" fill="none" xmlns="http://www.w3.org/2000/svg">
<ellipse cx="11" cy="6" rx="2" ry="2" transform="rotate(-90 11 6)" fill="#3E3D81"/>
<path d="M53.6307 15L50.3011 3.36364H52.9886L54.9148 11.4489H55.0114L57.1364 3.36364H59.4375L61.5568 11.4659H61.6591L63.5852 3.36364H66.2727L62.9432 15H60.5455L58.3295 7.39205H58.2386L56.0284 15H53.6307ZM79.7864 9.18182C79.7864 10.4508 79.5459 11.5303 79.0648 12.4205C78.5876 13.3106 77.936 13.9905 77.1103 14.4602C76.2883 14.9261 75.3641 15.1591 74.3376 15.1591C73.3035 15.1591 72.3754 14.9242 71.5535 14.4545C70.7315 13.9848 70.0819 13.3049 69.6046 12.4148C69.1273 11.5246 68.8887 10.447 68.8887 9.18182C68.8887 7.91288 69.1273 6.83333 69.6046 5.94318C70.0819 5.05303 70.7315 4.375 71.5535 3.90909C72.3754 3.43939 73.3035 3.20455 74.3376 3.20455C75.3641 3.20455 76.2883 3.43939 77.1103 3.90909C77.936 4.375 78.5876 5.05303 79.0648 5.94318C79.5459 6.83333 79.7864 7.91288 79.7864 9.18182ZM77.2921 9.18182C77.2921 8.35985 77.169 7.66667 76.9228 7.10227C76.6804 6.53788 76.3376 6.10985 75.8944 5.81818C75.4512 5.52652 74.9323 5.38068 74.3376 5.38068C73.7429 5.38068 73.2239 5.52652 72.7807 5.81818C72.3376 6.10985 71.9929 6.53788 71.7466 7.10227C71.5042 7.66667 71.383 8.35985 71.383 9.18182C71.383 10.0038 71.5042 10.697 71.7466 11.2614C71.9929 11.8258 72.3376 12.2538 72.7807 12.5455C73.2239 12.8371 73.7429 12.983 74.3376 12.983C74.9323 12.983 75.4512 12.8371 75.8944 12.5455C76.3376 12.2538 76.6804 11.8258 76.9228 11.2614C77.169 10.697 77.2921 10.0038 77.2921 9.18182ZM83.7689 3.36364H86.803L90.0075 11.1818H90.1439L93.3484 3.36364H96.3825V15H93.9961V7.42614H93.8995L90.8882 14.9432H89.2632L86.2518 7.39773H86.1552V15H83.7689V3.36364ZM100.569 15V3.36364H108.41V5.39205H103.03V8.16477H108.007V10.1932H103.03V12.9716H108.433V15H100.569ZM122.259 3.36364V15H120.134L115.072 7.67614H114.987V15H112.526V3.36364H114.685L119.708 10.6818H119.81V3.36364H122.259ZM128.435 3.36364V4.59091C128.435 4.93939 128.367 5.29545 128.23 5.65909C128.098 6.01894 127.92 6.35985 127.696 6.68182C127.473 7 127.229 7.27083 126.963 7.49432L125.895 6.86364C126.085 6.56439 126.251 6.23295 126.395 5.86932C126.543 5.50568 126.617 5.08333 126.617 4.60227V3.36364H128.435ZM138.565 6.71023C138.52 6.25189 138.325 5.89583 137.98 5.64205C137.635 5.38826 137.167 5.26136 136.576 5.26136C136.175 5.26136 135.836 5.31818 135.559 5.43182C135.283 5.54167 135.071 5.69508 134.923 5.89205C134.779 6.08902 134.707 6.3125 134.707 6.5625C134.7 6.77083 134.743 6.95265 134.838 7.10795C134.936 7.26326 135.071 7.39773 135.241 7.51136C135.412 7.62121 135.609 7.7178 135.832 7.80114C136.056 7.88068 136.294 7.94886 136.548 8.00568L137.594 8.25568C138.101 8.36932 138.567 8.52083 138.991 8.71023C139.415 8.89962 139.783 9.13258 140.094 9.40909C140.404 9.68561 140.645 10.0114 140.815 10.3864C140.989 10.7614 141.078 11.1913 141.082 11.6761C141.078 12.3883 140.897 13.0057 140.537 13.5284C140.181 14.0473 139.665 14.4508 138.991 14.7386C138.321 15.0227 137.512 15.1648 136.565 15.1648C135.626 15.1648 134.808 15.0208 134.111 14.733C133.417 14.4451 132.876 14.0189 132.486 13.4545C132.099 12.8864 131.897 12.1837 131.878 11.3466H134.258C134.285 11.7367 134.397 12.0625 134.594 12.3239C134.794 12.5814 135.061 12.7765 135.395 12.9091C135.732 13.0379 136.112 13.1023 136.537 13.1023C136.953 13.1023 137.315 13.0417 137.622 12.9205C137.933 12.7992 138.173 12.6307 138.344 12.4148C138.514 12.1989 138.599 11.9508 138.599 11.6705C138.599 11.4091 138.522 11.1894 138.366 11.0114C138.215 10.8333 137.991 10.6818 137.696 10.5568C137.404 10.4318 137.046 10.3182 136.622 10.2159L135.355 9.89773C134.374 9.65909 133.599 9.28598 133.031 8.77841C132.463 8.27083 132.181 7.58712 132.184 6.72727C132.181 6.02273 132.368 5.4072 132.747 4.88068C133.13 4.35417 133.654 3.94318 134.321 3.64773C134.987 3.35227 135.745 3.20455 136.594 3.20455C137.457 3.20455 138.211 3.35227 138.855 3.64773C139.503 3.94318 140.006 4.35417 140.366 4.88068C140.726 5.4072 140.912 6.01705 140.923 6.71023H138.565ZM150.76 15V3.36364H155.351C156.23 3.36364 156.98 3.52083 157.601 3.83523C158.226 4.14583 158.701 4.58712 159.027 5.15909C159.357 5.72727 159.521 6.39583 159.521 7.16477C159.521 7.9375 159.355 8.60227 159.021 9.15909C158.688 9.71212 158.205 10.1364 157.573 10.4318C156.944 10.7273 156.182 10.875 155.289 10.875H152.215V8.89773H154.891C155.36 8.89773 155.751 8.83333 156.061 8.70455C156.372 8.57576 156.603 8.38258 156.754 8.125C156.91 7.86742 156.987 7.54735 156.987 7.16477C156.987 6.77841 156.91 6.45265 156.754 6.1875C156.603 5.92235 156.37 5.72159 156.056 5.58523C155.745 5.44508 155.353 5.375 154.879 5.375H153.22V15H150.76ZM157.044 9.70455L159.936 15H157.22L154.391 9.70455H157.044ZM165.88 3.36364V15H163.42V3.36364H165.88ZM177.78 7.125C177.701 6.84848 177.589 6.60417 177.445 6.39205C177.301 6.17614 177.125 5.99432 176.917 5.84659C176.712 5.69508 176.477 5.57955 176.212 5.5C175.951 5.42045 175.661 5.38068 175.343 5.38068C174.748 5.38068 174.225 5.52841 173.775 5.82386C173.328 6.11932 172.979 6.54924 172.729 7.11364C172.479 7.67424 172.354 8.35985 172.354 9.17045C172.354 9.98106 172.477 10.6705 172.724 11.2386C172.97 11.8068 173.318 12.2405 173.769 12.5398C174.22 12.8352 174.752 12.983 175.366 12.983C175.922 12.983 176.398 12.8845 176.792 12.6875C177.189 12.4867 177.493 12.2045 177.701 11.8409C177.913 11.4773 178.019 11.0473 178.019 10.5511L178.519 10.625H175.519V8.77273H180.388V10.2386C180.388 11.2614 180.172 12.1402 179.741 12.875C179.309 13.6061 178.714 14.1705 177.957 14.5682C177.199 14.9621 176.332 15.1591 175.354 15.1591C174.263 15.1591 173.305 14.9186 172.479 14.4375C171.654 13.9527 171.01 13.2652 170.547 12.375C170.089 11.4811 169.86 10.4205 169.86 9.19318C169.86 8.25 169.996 7.40909 170.269 6.67045C170.546 5.92803 170.932 5.29924 171.428 4.78409C171.924 4.26894 172.502 3.87689 173.161 3.60795C173.82 3.33901 174.534 3.20455 175.303 3.20455C175.962 3.20455 176.576 3.30114 177.144 3.49432C177.712 3.68371 178.216 3.95265 178.655 4.30114C179.099 4.64962 179.46 5.06439 179.741 5.54545C180.021 6.02273 180.201 6.54924 180.28 7.125H177.78ZM184.396 15V3.36364H186.857V8.16477H191.851V3.36364H194.305V15H191.851V10.1932H186.857V15H184.396ZM198.051 5.39205V3.36364H207.607V5.39205H204.045V15H201.613V5.39205H198.051ZM217.654 6.71023C217.608 6.25189 217.413 5.89583 217.069 5.64205C216.724 5.38826 216.256 5.26136 215.665 5.26136C215.264 5.26136 214.925 5.31818 214.648 5.43182C214.372 5.54167 214.16 5.69508 214.012 5.89205C213.868 6.08902 213.796 6.3125 213.796 6.5625C213.788 6.77083 213.832 6.95265 213.927 7.10795C214.025 7.26326 214.16 7.39773 214.33 7.51136C214.5 7.62121 214.697 7.7178 214.921 7.80114C215.144 7.88068 215.383 7.94886 215.637 8.00568L216.682 8.25568C217.19 8.36932 217.656 8.52083 218.08 8.71023C218.504 8.89962 218.872 9.13258 219.182 9.40909C219.493 9.68561 219.733 10.0114 219.904 10.3864C220.078 10.7614 220.167 11.1913 220.171 11.6761C220.167 12.3883 219.985 13.0057 219.625 13.5284C219.269 14.0473 218.754 14.4508 218.08 14.7386C217.41 15.0227 216.601 15.1648 215.654 15.1648C214.714 15.1648 213.896 15.0208 213.199 14.733C212.506 14.4451 211.964 14.0189 211.574 13.4545C211.188 12.8864 210.985 12.1837 210.966 11.3466H213.347C213.374 11.7367 213.485 12.0625 213.682 12.3239C213.883 12.5814 214.15 12.7765 214.483 12.9091C214.821 13.0379 215.201 13.1023 215.625 13.1023C216.042 13.1023 216.404 13.0417 216.711 12.9205C217.021 12.7992 217.262 12.6307 217.432 12.4148C217.603 12.1989 217.688 11.9508 217.688 11.6705C217.688 11.4091 217.61 11.1894 217.455 11.0114C217.303 10.8333 217.08 10.6818 216.785 10.5568C216.493 10.4318 216.135 10.3182 215.711 10.2159L214.444 9.89773C213.463 9.65909 212.688 9.28598 212.12 8.77841C211.552 8.27083 211.269 7.58712 211.273 6.72727C211.269 6.02273 211.457 5.4072 211.836 4.88068C212.218 4.35417 212.743 3.94318 213.41 3.64773C214.076 3.35227 214.834 3.20455 215.682 3.20455C216.546 3.20455 217.3 3.35227 217.944 3.64773C218.591 3.94318 219.095 4.35417 219.455 4.88068C219.815 5.4072 220 6.01705 220.012 6.71023H217.654ZM51.0114 72V60.3636H58.8523V62.392H53.4716V65.1648H58.4489V67.1932H53.4716V69.9716H58.875V72H51.0114ZM65.2751 60.3636L67.6216 64.3295H67.7126L70.0705 60.3636H72.8489L69.2978 66.1818L72.9285 72H70.0989L67.7126 68.0284H67.6216L65.2353 72H62.4171L66.0591 66.1818L62.4853 60.3636H65.2751ZM76.5657 72V60.3636H81.1566C82.0392 60.3636 82.7911 60.5322 83.4123 60.8693C84.0335 61.2027 84.507 61.6667 84.8328 62.2614C85.1623 62.8523 85.3271 63.5341 85.3271 64.3068C85.3271 65.0795 85.1604 65.7614 84.8271 66.3523C84.4938 66.9432 84.0108 67.4034 83.3782 67.733C82.7495 68.0625 81.9881 68.2273 81.0941 68.2273H78.168V66.2557H80.6964C81.1699 66.2557 81.5601 66.1742 81.8669 66.0114C82.1775 65.8447 82.4085 65.6155 82.5601 65.3239C82.7154 65.0284 82.793 64.6894 82.793 64.3068C82.793 63.9205 82.7154 63.5833 82.5601 63.2955C82.4085 63.0038 82.1775 62.7784 81.8669 62.6193C81.5563 62.4564 81.1623 62.375 80.6851 62.375H79.026V72H76.5657ZM89.0851 72V60.3636H91.5453V69.9716H96.534V72H89.0851ZM110.563 66.1818C110.563 67.4508 110.323 68.5303 109.842 69.4205C109.364 70.3106 108.713 70.9905 107.887 71.4602C107.065 71.9261 106.141 72.1591 105.114 72.1591C104.08 72.1591 103.152 71.9242 102.33 71.4545C101.508 70.9848 100.859 70.3049 100.381 69.4148C99.9042 68.5246 99.6656 67.447 99.6656 66.1818C99.6656 64.9129 99.9042 63.8333 100.381 62.9432C100.859 62.053 101.508 61.375 102.33 60.9091C103.152 60.4394 104.08 60.2045 105.114 60.2045C106.141 60.2045 107.065 60.4394 107.887 60.9091C108.713 61.375 109.364 62.053 109.842 62.9432C110.323 63.8333 110.563 64.9129 110.563 66.1818ZM108.069 66.1818C108.069 65.3598 107.946 64.6667 107.7 64.1023C107.457 63.5379 107.114 63.1098 106.671 62.8182C106.228 62.5265 105.709 62.3807 105.114 62.3807C104.52 62.3807 104.001 62.5265 103.558 62.8182C103.114 63.1098 102.77 63.5379 102.524 64.1023C102.281 64.6667 102.16 65.3598 102.16 66.1818C102.16 67.0038 102.281 67.697 102.524 68.2614C102.77 68.8258 103.114 69.2538 103.558 69.5455C104.001 69.8371 104.52 69.983 105.114 69.983C105.709 69.983 106.228 69.8371 106.671 69.5455C107.114 69.2538 107.457 68.8258 107.7 68.2614C107.946 67.697 108.069 67.0038 108.069 66.1818ZM114.546 72V60.3636H119.137C120.015 60.3636 120.765 60.5208 121.387 60.8352C122.012 61.1458 122.487 61.5871 122.813 62.1591C123.142 62.7273 123.307 63.3958 123.307 64.1648C123.307 64.9375 123.14 65.6023 122.807 66.1591C122.474 66.7121 121.991 67.1364 121.358 67.4318C120.729 67.7273 119.968 67.875 119.074 67.875H116V65.8977H118.676C119.146 65.8977 119.536 65.8333 119.847 65.7045C120.157 65.5758 120.389 65.3826 120.54 65.125C120.695 64.8674 120.773 64.5473 120.773 64.1648C120.773 63.7784 120.695 63.4527 120.54 63.1875C120.389 62.9223 120.156 62.7216 119.841 62.5852C119.531 62.4451 119.139 62.375 118.665 62.375H117.006V72H114.546ZM120.83 66.7045L123.722 72H121.006L118.176 66.7045H120.83ZM127.206 72V60.3636H135.047V62.392H129.666V65.1648H134.643V67.1932H129.666V69.9716H135.069V72H127.206ZM139.163 72V60.3636H143.754C144.632 60.3636 145.382 60.5208 146.004 60.8352C146.629 61.1458 147.104 61.5871 147.43 62.1591C147.759 62.7273 147.924 63.3958 147.924 64.1648C147.924 64.9375 147.757 65.6023 147.424 66.1591C147.091 66.7121 146.608 67.1364 145.975 67.4318C145.346 67.7273 144.585 67.875 143.691 67.875H140.617V65.8977H143.293C143.763 65.8977 144.153 65.8333 144.464 65.7045C144.774 65.5758 145.005 65.3826 145.157 65.125C145.312 64.8674 145.39 64.5473 145.39 64.1648C145.39 63.7784 145.312 63.4527 145.157 63.1875C145.005 62.9223 144.772 62.7216 144.458 62.5852C144.147 62.4451 143.755 62.375 143.282 62.375H141.623V72H139.163ZM145.447 66.7045L148.339 72H145.623L142.793 66.7045H145.447Z" fill="#282875"/>
<path d="M51.4091 34V22.3636H55.3409C56.25 22.3636 56.9962 22.5189 57.5795 22.8295C58.1629 23.1364 58.5947 23.5587 58.875 24.0966C59.1553 24.6345 59.2955 25.2462 59.2955 25.9318C59.2955 26.6174 59.1553 27.2254 58.875 27.7557C58.5947 28.286 58.1648 28.7027 57.5852 29.0057C57.0057 29.3049 56.2652 29.4545 55.3636 29.4545H52.1818V28.1818H55.3182C55.9394 28.1818 56.4394 28.0909 56.8182 27.9091C57.2008 27.7273 57.4773 27.4697 57.6477 27.1364C57.822 26.7992 57.9091 26.3977 57.9091 25.9318C57.9091 25.4659 57.822 25.0587 57.6477 24.7102C57.4735 24.3617 57.1951 24.0928 56.8125 23.9034C56.4299 23.7102 55.9242 23.6136 55.2955 23.6136H52.8182V34H51.4091ZM56.8864 28.7727L59.75 34H58.1136L55.2955 28.7727H56.8864ZM63.8035 34V22.3636H70.8262V23.6136H65.2126V27.5455H70.4626V28.7955H65.2126V32.75H70.9171V34H63.8035ZM84.8896 26H83.4805C83.3972 25.5947 83.2513 25.2386 83.043 24.9318C82.8385 24.625 82.5885 24.3674 82.293 24.1591C82.0013 23.947 81.6775 23.7879 81.3214 23.6818C80.9654 23.5758 80.5941 23.5227 80.2078 23.5227C79.5032 23.5227 78.865 23.7008 78.293 24.0568C77.7248 24.4129 77.2722 24.9375 76.9351 25.6307C76.6017 26.3239 76.4351 27.1742 76.4351 28.1818C76.4351 29.1894 76.6017 30.0398 76.9351 30.733C77.2722 31.4261 77.7248 31.9508 78.293 32.3068C78.865 32.6629 79.5032 32.8409 80.2078 32.8409C80.5941 32.8409 80.9654 32.7879 81.3214 32.6818C81.6775 32.5758 82.0013 32.4186 82.293 32.2102C82.5885 31.9981 82.8385 31.7386 83.043 31.4318C83.2513 31.1212 83.3972 30.7652 83.4805 30.3636H84.8896C84.7835 30.9583 84.5904 31.4905 84.3101 31.9602C84.0298 32.4299 83.6813 32.8295 83.2646 33.1591C82.8479 33.4848 82.3801 33.733 81.8612 33.9034C81.346 34.0739 80.7949 34.1591 80.2078 34.1591C79.2154 34.1591 78.3328 33.9167 77.5601 33.4318C76.7873 32.947 76.1794 32.2576 75.7362 31.3636C75.293 30.4697 75.0714 29.4091 75.0714 28.1818C75.0714 26.9545 75.293 25.8939 75.7362 25C76.1794 24.1061 76.7873 23.4167 77.5601 22.9318C78.3328 22.447 79.2154 22.2045 80.2078 22.2045C80.7949 22.2045 81.346 22.2898 81.8612 22.4602C82.3801 22.6307 82.8479 22.8807 83.2646 23.2102C83.6813 23.536 84.0298 23.9337 84.3101 24.4034C84.5904 24.8693 84.7835 25.4015 84.8896 26ZM99.1448 28.1818C99.1448 29.4091 98.9232 30.4697 98.48 31.3636C98.0368 32.2576 97.4289 32.947 96.6561 33.4318C95.8834 33.9167 95.0008 34.1591 94.0084 34.1591C93.016 34.1591 92.1334 33.9167 91.3607 33.4318C90.588 32.947 89.98 32.2576 89.5368 31.3636C89.0936 30.4697 88.872 29.4091 88.872 28.1818C88.872 26.9545 89.0936 25.8939 89.5368 25C89.98 24.1061 90.588 23.4167 91.3607 22.9318C92.1334 22.447 93.016 22.2045 94.0084 22.2045C95.0008 22.2045 95.8834 22.447 96.6561 22.9318C97.4289 23.4167 98.0368 24.1061 98.48 25C98.9232 25.8939 99.1448 26.9545 99.1448 28.1818ZM97.7811 28.1818C97.7811 27.1742 97.6126 26.3239 97.2755 25.6307C96.9421 24.9375 96.4895 24.4129 95.9175 24.0568C95.3493 23.7008 94.713 23.5227 94.0084 23.5227C93.3039 23.5227 92.6656 23.7008 92.0936 24.0568C91.5255 24.4129 91.0728 24.9375 90.7357 25.6307C90.4023 26.3239 90.2357 27.1742 90.2357 28.1818C90.2357 29.1894 90.4023 30.0398 90.7357 30.733C91.0728 31.4261 91.5255 31.9508 92.0936 32.3068C92.6656 32.6629 93.3039 32.8409 94.0084 32.8409C94.713 32.8409 95.3493 32.6629 95.9175 32.3068C96.4895 31.9508 96.9421 31.4261 97.2755 30.733C97.6126 30.0398 97.7811 29.1894 97.7811 28.1818ZM103.674 22.3636H105.356L109.31 32.0227H109.447L113.401 22.3636H115.083V34H113.765V25.1591H113.651L110.015 34H108.742L105.106 25.1591H104.992V34H103.674V22.3636ZM120.068 22.3636H121.75L125.705 32.0227H125.841L129.796 22.3636H131.478V34H130.159V25.1591H130.046L126.409 34H125.137L121.5 25.1591H121.387V34H120.068V22.3636ZM136.463 34V22.3636H143.486V23.6136H137.872V27.5455H143.122V28.7955H137.872V32.75H143.576V34H136.463ZM157.413 22.3636V34H156.049L149.708 24.8636H149.594V34H148.185V22.3636H149.549L155.913 31.5227H156.026V22.3636H157.413ZM165.983 34H162.392V22.3636H166.142C167.271 22.3636 168.237 22.5966 169.04 23.0625C169.843 23.5246 170.459 24.1894 170.887 25.0568C171.315 25.9205 171.529 26.9545 171.529 28.1591C171.529 29.3712 171.313 30.4148 170.881 31.2898C170.449 32.161 169.82 32.8314 168.994 33.3011C168.169 33.767 167.165 34 165.983 34ZM163.801 32.75H165.892C166.854 32.75 167.652 32.5644 168.284 32.1932C168.917 31.822 169.388 31.2936 169.699 30.608C170.01 29.9223 170.165 29.1061 170.165 28.1591C170.165 27.2197 170.012 26.411 169.705 25.733C169.398 25.0511 168.94 24.5284 168.33 24.1648C167.72 23.7973 166.96 23.6136 166.051 23.6136H163.801V32.75ZM175.983 34H174.505L178.778 22.3636H180.233L184.505 34H183.028L179.551 24.2045H179.46L175.983 34ZM176.528 29.4545H182.483V30.7045H176.528V29.4545ZM186.482 23.6136V22.3636H195.209V23.6136H191.55V34H190.141V23.6136H186.482ZM200.953 22.3636V34H199.544V22.3636H200.953ZM215.757 28.1818C215.757 29.4091 215.535 30.4697 215.092 31.3636C214.649 32.2576 214.041 32.947 213.268 33.4318C212.495 33.9167 211.613 34.1591 210.62 34.1591C209.628 34.1591 208.745 33.9167 207.973 33.4318C207.2 32.947 206.592 32.2576 206.149 31.3636C205.706 30.4697 205.484 29.4091 205.484 28.1818C205.484 26.9545 205.706 25.8939 206.149 25C206.592 24.1061 207.2 23.4167 207.973 22.9318C208.745 22.447 209.628 22.2045 210.62 22.2045C211.613 22.2045 212.495 22.447 213.268 22.9318C214.041 23.4167 214.649 24.1061 215.092 25C215.535 25.8939 215.757 26.9545 215.757 28.1818ZM214.393 28.1818C214.393 27.1742 214.224 26.3239 213.887 25.6307C213.554 24.9375 213.101 24.4129 212.529 24.0568C211.961 23.7008 211.325 23.5227 210.62 23.5227C209.916 23.5227 209.277 23.7008 208.706 24.0568C208.137 24.4129 207.685 24.9375 207.348 25.6307C207.014 26.3239 206.848 27.1742 206.848 28.1818C206.848 29.1894 207.014 30.0398 207.348 30.733C207.685 31.4261 208.137 31.9508 208.706 32.3068C209.277 32.6629 209.916 32.8409 210.62 32.8409C211.325 32.8409 211.961 32.6629 212.529 32.3068C213.101 31.9508 213.554 31.4261 213.887 30.733C214.224 30.0398 214.393 29.1894 214.393 28.1818ZM229.513 22.3636V34H228.15L221.809 24.8636H221.695V34H220.286V22.3636H221.65L228.013 31.5227H228.127V22.3636H229.513ZM240.856 25.2727C240.788 24.697 240.512 24.25 240.027 23.9318C239.542 23.6136 238.947 23.4545 238.243 23.4545C237.728 23.4545 237.277 23.5379 236.891 23.7045C236.508 23.8712 236.209 24.1004 235.993 24.392C235.781 24.6837 235.675 25.0152 235.675 25.3864C235.675 25.697 235.749 25.964 235.896 26.1875C236.048 26.4072 236.241 26.5909 236.476 26.7386C236.711 26.8826 236.957 27.0019 237.214 27.0966C237.472 27.1875 237.709 27.2614 237.925 27.3182L239.106 27.6364C239.41 27.7159 239.747 27.8258 240.118 27.9659C240.493 28.1061 240.851 28.2973 241.192 28.5398C241.536 28.7784 241.82 29.0852 242.044 29.4602C242.267 29.8352 242.379 30.2955 242.379 30.8409C242.379 31.4697 242.214 32.0379 241.885 32.5455C241.559 33.053 241.082 33.4564 240.453 33.7557C239.828 34.0549 239.069 34.2045 238.175 34.2045C237.341 34.2045 236.62 34.0701 236.01 33.8011C235.404 33.5322 234.927 33.1572 234.578 32.6761C234.233 32.1951 234.038 31.6364 233.993 31H235.447C235.485 31.4394 235.633 31.803 235.891 32.0909C236.152 32.375 236.481 32.5871 236.879 32.7273C237.281 32.8636 237.713 32.9318 238.175 32.9318C238.713 32.9318 239.195 32.8447 239.624 32.6705C240.052 32.4924 240.391 32.2462 240.641 31.9318C240.891 31.6136 241.016 31.2424 241.016 30.8182C241.016 30.4318 240.908 30.1174 240.692 29.875C240.476 29.6326 240.192 29.4356 239.839 29.2841C239.487 29.1326 239.106 29 238.697 28.8864L237.266 28.4773C236.356 28.2159 235.637 27.8428 235.106 27.358C234.576 26.8731 234.311 26.2386 234.311 25.4545C234.311 24.803 234.487 24.2348 234.839 23.75C235.195 23.2614 235.673 22.8826 236.271 22.6136C236.874 22.3409 237.546 22.2045 238.288 22.2045C239.038 22.2045 239.705 22.339 240.288 22.608C240.872 22.8731 241.334 23.2367 241.675 23.6989C242.019 24.161 242.201 24.6856 242.22 25.2727H240.856ZM256.63 34.1591C255.864 34.1591 255.205 34.0189 254.652 33.7386C254.099 33.4583 253.673 33.0739 253.374 32.5852C253.075 32.0966 252.925 31.5379 252.925 30.9091C252.925 30.4242 253.027 29.9943 253.232 29.6193C253.44 29.2405 253.726 28.8902 254.09 28.5682C254.457 28.2424 254.88 27.9167 255.357 27.5909L257.039 26.3409C257.368 26.125 257.631 25.8939 257.828 25.6477C258.029 25.4015 258.13 25.0795 258.13 24.6818C258.13 24.3864 257.999 24.1004 257.738 23.8239C257.48 23.5473 257.141 23.4091 256.721 23.4091C256.425 23.4091 256.164 23.4848 255.936 23.6364C255.713 23.7841 255.537 23.9735 255.408 24.2045C255.283 24.4318 255.221 24.6667 255.221 24.9091C255.221 25.1818 255.294 25.4583 255.442 25.7386C255.594 26.0152 255.785 26.2992 256.016 26.5909C256.251 26.8788 256.493 27.1742 256.743 27.4773L262.084 34H260.471L256.061 28.6818C255.652 28.1894 255.281 27.7424 254.948 27.3409C254.614 26.9394 254.349 26.5436 254.152 26.1534C253.955 25.7633 253.857 25.3409 253.857 24.8864C253.857 24.3636 253.972 23.9053 254.203 23.5114C254.438 23.1136 254.766 22.8049 255.186 22.5852C255.611 22.3617 256.107 22.25 256.675 22.25C257.258 22.25 257.76 22.3636 258.181 22.5909C258.601 22.8144 258.925 23.1117 259.152 23.483C259.38 23.8504 259.493 24.25 259.493 24.6818C259.493 25.2386 259.355 25.7216 259.078 26.1307C258.802 26.5398 258.425 26.9205 257.948 27.2727L255.63 29C255.107 29.3864 254.753 29.7614 254.567 30.125C254.381 30.4886 254.289 30.75 254.289 30.9091C254.289 31.2727 254.383 31.6117 254.573 31.9261C254.762 32.2405 255.029 32.4943 255.374 32.6875C255.719 32.8807 256.122 32.9773 256.584 32.9773C257.024 32.9773 257.452 32.8845 257.868 32.6989C258.285 32.5095 258.662 32.2367 258.999 31.8807C259.34 31.5246 259.609 31.0966 259.806 30.5966C260.006 30.0966 260.107 29.5341 260.107 28.9091H261.402C261.402 29.6818 261.313 30.3125 261.135 30.8011C260.957 31.2898 260.756 31.6723 260.533 31.9489C260.31 32.2254 260.13 32.4318 259.993 32.5682C259.948 32.625 259.906 32.6818 259.868 32.7386C259.83 32.7955 259.789 32.8523 259.743 32.9091C259.368 33.3295 258.895 33.6439 258.323 33.8523C257.751 34.0568 257.186 34.1591 256.63 34.1591ZM60.7727 45H59.3636C59.2803 44.5947 59.1345 44.2386 58.9261 43.9318C58.7216 43.625 58.4716 43.3674 58.1761 43.1591C57.8845 42.947 57.5606 42.7879 57.2045 42.6818C56.8485 42.5758 56.4773 42.5227 56.0909 42.5227C55.3864 42.5227 54.7481 42.7008 54.1761 43.0568C53.608 43.4129 53.1553 43.9375 52.8182 44.6307C52.4848 45.3239 52.3182 46.1742 52.3182 47.1818C52.3182 48.1894 52.4848 49.0398 52.8182 49.733C53.1553 50.4261 53.608 50.9508 54.1761 51.3068C54.7481 51.6629 55.3864 51.8409 56.0909 51.8409C56.4773 51.8409 56.8485 51.7879 57.2045 51.6818C57.5606 51.5758 57.8845 51.4186 58.1761 51.2102C58.4716 50.9981 58.7216 50.7386 58.9261 50.4318C59.1345 50.1212 59.2803 49.7652 59.3636 49.3636H60.7727C60.6667 49.9583 60.4735 50.4905 60.1932 50.9602C59.9129 51.4299 59.5644 51.8295 59.1477 52.1591C58.7311 52.4848 58.2633 52.733 57.7443 52.9034C57.2292 53.0739 56.678 53.1591 56.0909 53.1591C55.0985 53.1591 54.2159 52.9167 53.4432 52.4318C52.6705 51.947 52.0625 51.2576 51.6193 50.3636C51.1761 49.4697 50.9545 48.4091 50.9545 47.1818C50.9545 45.9545 51.1761 44.8939 51.6193 44C52.0625 43.1061 52.6705 42.4167 53.4432 41.9318C54.2159 41.447 55.0985 41.2045 56.0909 41.2045C56.678 41.2045 57.2292 41.2898 57.7443 41.4602C58.2633 41.6307 58.7311 41.8807 59.1477 42.2102C59.5644 42.536 59.9129 42.9337 60.1932 43.4034C60.4735 43.8693 60.6667 44.4015 60.7727 45ZM75.0279 47.1818C75.0279 48.4091 74.8063 49.4697 74.3631 50.3636C73.9199 51.2576 73.312 51.947 72.5393 52.4318C71.7665 52.9167 70.884 53.1591 69.8915 53.1591C68.8991 53.1591 68.0165 52.9167 67.2438 52.4318C66.4711 51.947 65.8631 51.2576 65.4199 50.3636C64.9768 49.4697 64.7552 48.4091 64.7552 47.1818C64.7552 45.9545 64.9768 44.8939 65.4199 44C65.8631 43.1061 66.4711 42.4167 67.2438 41.9318C68.0165 41.447 68.8991 41.2045 69.8915 41.2045C70.884 41.2045 71.7665 41.447 72.5393 41.9318C73.312 42.4167 73.9199 43.1061 74.3631 44C74.8063 44.8939 75.0279 45.9545 75.0279 47.1818ZM73.6643 47.1818C73.6643 46.1742 73.4957 45.3239 73.1586 44.6307C72.8252 43.9375 72.3726 43.4129 71.8006 43.0568C71.2324 42.7008 70.5961 42.5227 69.8915 42.5227C69.187 42.5227 68.5487 42.7008 67.9768 43.0568C67.4086 43.4129 66.9559 43.9375 66.6188 44.6307C66.2855 45.3239 66.1188 46.1742 66.1188 47.1818C66.1188 48.1894 66.2855 49.0398 66.6188 49.733C66.9559 50.4261 67.4086 50.9508 67.9768 51.3068C68.5487 51.6629 69.187 51.8409 69.8915 51.8409C70.5961 51.8409 71.2324 51.6629 71.8006 51.3068C72.3726 50.9508 72.8252 50.4261 73.1586 49.733C73.4957 49.0398 73.6643 48.1894 73.6643 47.1818ZM79.5572 41.3636H81.239L85.1936 51.0227H85.3299L89.2845 41.3636H90.9663V53H89.6481V44.1591H89.5345L85.8981 53H84.6254L80.989 44.1591H80.8754V53H79.5572V41.3636ZM95.9516 53V41.3636H99.8834C100.796 41.3636 101.542 41.5284 102.122 41.858C102.705 42.1837 103.137 42.625 103.417 43.1818C103.698 43.7386 103.838 44.3598 103.838 45.0455C103.838 45.7311 103.698 46.3542 103.417 46.9148C103.141 47.4754 102.713 47.9223 102.133 48.2557C101.554 48.5852 100.811 48.75 99.9061 48.75H97.088V47.5H99.8607C100.486 47.5 100.988 47.392 101.366 47.1761C101.745 46.9602 102.02 46.6686 102.19 46.3011C102.364 45.9299 102.452 45.5114 102.452 45.0455C102.452 44.5795 102.364 44.1629 102.19 43.7955C102.02 43.428 101.743 43.1402 101.361 42.9318C100.978 42.7197 100.471 42.6136 99.838 42.6136H97.3607V53H95.9516ZM108.268 53V41.3636H109.677V51.75H115.086V53H108.268ZM120.837 41.3636V53H119.428V41.3636H120.837ZM126.299 53H124.822L129.095 41.3636H130.549L134.822 53H133.345L129.868 43.2045H129.777L126.299 53ZM126.845 48.4545H132.799V49.7045H126.845V48.4545ZM148.022 41.3636V53H146.658L140.317 43.8636H140.204V53H138.795V41.3636H140.158L146.522 50.5227H146.636V41.3636H148.022ZM162.365 45H160.956C160.873 44.5947 160.727 44.2386 160.519 43.9318C160.314 43.625 160.064 43.3674 159.769 43.1591C159.477 42.947 159.153 42.7879 158.797 42.6818C158.441 42.5758 158.07 42.5227 157.683 42.5227C156.979 42.5227 156.341 42.7008 155.769 43.0568C155.2 43.4129 154.748 43.9375 154.411 44.6307C154.077 45.3239 153.911 46.1742 153.911 47.1818C153.911 48.1894 154.077 49.0398 154.411 49.733C154.748 50.4261 155.2 50.9508 155.769 51.3068C156.341 51.6629 156.979 51.8409 157.683 51.8409C158.07 51.8409 158.441 51.7879 158.797 51.6818C159.153 51.5758 159.477 51.4186 159.769 51.2102C160.064 50.9981 160.314 50.7386 160.519 50.4318C160.727 50.1212 160.873 49.7652 160.956 49.3636H162.365C162.259 49.9583 162.066 50.4905 161.786 50.9602C161.505 51.4299 161.157 51.8295 160.74 52.1591C160.324 52.4848 159.856 52.733 159.337 52.9034C158.822 53.0739 158.271 53.1591 157.683 53.1591C156.691 53.1591 155.808 52.9167 155.036 52.4318C154.263 51.947 153.655 51.2576 153.212 50.3636C152.769 49.4697 152.547 48.4091 152.547 47.1818C152.547 45.9545 152.769 44.8939 153.212 44C153.655 43.1061 154.263 42.4167 155.036 41.9318C155.808 41.447 156.691 41.2045 157.683 41.2045C158.271 41.2045 158.822 41.2898 159.337 41.4602C159.856 41.6307 160.324 41.8807 160.74 42.2102C161.157 42.536 161.505 42.9337 161.786 43.4034C162.066 43.8693 162.259 44.4015 162.365 45ZM166.802 53V41.3636H173.825V42.6136H168.211V46.5455H173.461V47.7955H168.211V51.75H173.916V53H166.802Z" fill="#529D8E"/>
<circle cx="18" cy="13" r="2" transform="rotate(-90 18 13)" fill="#3E3D81"/>
<ellipse cx="37" cy="26" rx="2" ry="2" transform="rotate(-90 37 26)" fill="#3E3D81"/>
<circle cx="2" cy="13" r="2" transform="rotate(-90 2 13)" fill="#5F5F98"/>
<circle cx="11" cy="13" r="2" transform="rotate(-90 11 13)" fill="#282875"/>
<circle cx="18" cy="20" r="2" transform="rotate(-90 18 20)" fill="#529D8E"/>
<circle cx="36" cy="13" r="2" transform="rotate(-90 36 13)" fill="#282875"/>
<ellipse cx="28" cy="26" rx="2" ry="2" transform="rotate(-90 28 26)" fill="#5F5F98"/>
<ellipse cx="11" cy="26" rx="2" ry="2" transform="rotate(-90 11 26)" fill="#3E3D81"/>
<circle cx="28" cy="36" r="2" transform="rotate(-90 28 36)" fill="#282875"/>
<ellipse cx="37" cy="42" rx="2" ry="2" transform="rotate(-90 37 42)" fill="#3E3D81"/>
<ellipse cx="11" cy="31" rx="2" ry="2" transform="rotate(-90 11 31)" fill="#282875"/>
<circle cx="18" cy="36" r="2" transform="rotate(-90 18 36)" fill="#3E3D81"/>
<ellipse cx="37" cy="48" rx="2" ry="2" transform="rotate(-90 37 48)" fill="#282875"/>
<circle cx="2" cy="36" r="2" transform="rotate(-90 2 36)" fill="#529D8E"/>
<ellipse cx="11" cy="42" rx="2" ry="2" transform="rotate(-90 11 42)" fill="#5F5F98"/>
<ellipse cx="18" cy="48" rx="2" ry="2" transform="rotate(-90 18 48)" fill="#282875"/>
<ellipse cx="28" cy="54" rx="2" ry="2" transform="rotate(-90 28 54)" fill="#5F5F98"/>
<circle cx="37" cy="59" r="2" transform="rotate(-90 37 59)" fill="#529D8E"/>
<ellipse cx="2" cy="48" rx="2" ry="2" transform="rotate(-90 2 48)" fill="#3E3D81"/>
<ellipse cx="11" cy="54" rx="2" ry="2" transform="rotate(-90 11 54)" fill="#3E3D81"/>
<circle cx="18" cy="59" r="2" transform="rotate(-90 18 59)" fill="#282875"/>
<circle cx="18" cy="64" r="2" transform="rotate(-90 18 64)" fill="#5F5F98"/>
<ellipse cx="28" cy="70" rx="2" ry="2" transform="rotate(-90 28 70)" fill="#282875"/>
</svg>
