<svg width="581" height="32" viewBox="0 0 581 32" fill="none" xmlns="http://www.w3.org/2000/svg">
<ellipse cx="2" cy="19" rx="2" ry="2" transform="rotate(180 2 19)" fill="#3E3D81"/>
<circle cx="9" cy="12" r="2" transform="rotate(180 9 12)" fill="#3E3D81"/>
<circle cx="9" cy="28" r="2" transform="rotate(180 9 28)" fill="#5F5F98"/>
<circle cx="9" cy="19" r="2" transform="rotate(180 9 19)" fill="#282875"/>
<circle cx="16" cy="12" r="2" transform="rotate(180 16 12)" fill="#529D8E"/>
<ellipse cx="22" cy="2" rx="2" ry="2" transform="rotate(180 22 2)" fill="#5F5F98"/>
<ellipse cx="22" cy="19" rx="2" ry="2" transform="rotate(180 22 19)" fill="#3E3D81"/>
<circle cx="32" cy="2" r="2" transform="rotate(180 32 2)" fill="#282875"/>
<ellipse cx="27" cy="19" rx="2" ry="2" transform="rotate(180 27 19)" fill="#282875"/>
<circle cx="32" cy="12" r="2" transform="rotate(180 32 12)" fill="#3E3D81"/>
<circle cx="32" cy="28" r="2" transform="rotate(180 32 28)" fill="#529D8E"/>
<ellipse cx="38" cy="19" rx="2" ry="2" transform="rotate(180 38 19)" fill="#5F5F98"/>
<ellipse cx="44" cy="12" rx="2" ry="2" transform="rotate(180 44 12)" fill="#282875"/>
<ellipse cx="44" cy="2" rx="2" ry="2" transform="rotate(180 44 2)" fill="#5F5F98"/>
<ellipse cx="44" cy="28" rx="2" ry="2" transform="rotate(180 44 28)" fill="#3E3D81"/>
<ellipse cx="54" cy="2" rx="2" ry="2" transform="rotate(180 54 2)" fill="#282875"/>
<path d="M55.6307 28L52.3011 16.3636H54.9886L56.9148 24.4489H57.0114L59.1364 16.3636H61.4375L63.5568 24.4659H63.6591L65.5852 16.3636H68.2727L64.9432 28H62.5455L60.3295 20.392H60.2386L58.0284 28H55.6307ZM79.7064 22.1818C79.7064 23.4508 79.4659 24.5303 78.9848 25.4205C78.5076 26.3106 77.856 26.9905 77.0303 27.4602C76.2083 27.9261 75.2841 28.1591 74.2576 28.1591C73.2235 28.1591 72.2954 27.9242 71.4735 27.4545C70.6515 26.9848 70.0019 26.3049 69.5246 25.4148C69.0473 24.5246 68.8087 23.447 68.8087 22.1818C68.8087 20.9129 69.0473 19.8333 69.5246 18.9432C70.0019 18.053 70.6515 17.375 71.4735 16.9091C72.2954 16.4394 73.2235 16.2045 74.2576 16.2045C75.2841 16.2045 76.2083 16.4394 77.0303 16.9091C77.856 17.375 78.5076 18.053 78.9848 18.9432C79.4659 19.8333 79.7064 20.9129 79.7064 22.1818ZM77.2121 22.1818C77.2121 21.3598 77.089 20.6667 76.8428 20.1023C76.6004 19.5379 76.2576 19.1098 75.8144 18.8182C75.3712 18.5265 74.8523 18.3807 74.2576 18.3807C73.6629 18.3807 73.1439 18.5265 72.7007 18.8182C72.2576 19.1098 71.9129 19.5379 71.6666 20.1023C71.4242 20.6667 71.303 21.3598 71.303 22.1818C71.303 23.0038 71.4242 23.697 71.6666 24.2614C71.9129 24.8258 72.2576 25.2538 72.7007 25.5455C73.1439 25.8371 73.6629 25.983 74.2576 25.983C74.8523 25.983 75.3712 25.8371 75.8144 25.5455C76.2576 25.2538 76.6004 24.8258 76.8428 24.2614C77.089 23.697 77.2121 23.0038 77.2121 22.1818ZM81.6089 16.3636H84.643L87.8475 24.1818H87.9839L91.1884 16.3636H94.2225V28H91.8361V20.4261H91.7395L88.7282 27.9432H87.1032L84.0918 20.3977H83.9952V28H81.6089V16.3636ZM96.3295 28V16.3636H104.17V18.392H98.7897V21.1648H103.767V23.1932H98.7897V25.9716H104.193V28H96.3295ZM115.939 16.3636V28H113.814L108.752 20.6761H108.667V28H106.206V16.3636H108.365L113.388 23.6818H113.49V16.3636H115.939ZM124.364 19.7102C124.319 19.2519 124.124 18.8958 123.779 18.642C123.435 18.3883 122.967 18.2614 122.376 18.2614C121.974 18.2614 121.635 18.3182 121.359 18.4318C121.082 18.5417 120.87 18.6951 120.722 18.892C120.579 19.089 120.507 19.3125 120.507 19.5625C120.499 19.7708 120.543 19.9527 120.637 20.108C120.736 20.2633 120.87 20.3977 121.041 20.5114C121.211 20.6212 121.408 20.7178 121.632 20.8011C121.855 20.8807 122.094 20.9489 122.347 21.0057L123.393 21.2557C123.9 21.3693 124.366 21.5208 124.791 21.7102C125.215 21.8996 125.582 22.1326 125.893 22.4091C126.204 22.6856 126.444 23.0114 126.614 23.3864C126.789 23.7614 126.878 24.1913 126.882 24.6761C126.878 25.3883 126.696 26.0057 126.336 26.5284C125.98 27.0473 125.465 27.4508 124.791 27.7386C124.12 28.0227 123.311 28.1648 122.364 28.1648C121.425 28.1648 120.607 28.0208 119.91 27.733C119.217 27.4451 118.675 27.0189 118.285 26.4545C117.899 25.8864 117.696 25.1837 117.677 24.3466H120.058C120.084 24.7367 120.196 25.0625 120.393 25.3239C120.594 25.5814 120.861 25.7765 121.194 25.9091C121.531 26.0379 121.912 26.1023 122.336 26.1023C122.753 26.1023 123.114 26.0417 123.421 25.9205C123.732 25.7992 123.972 25.6307 124.143 25.4148C124.313 25.1989 124.399 24.9508 124.399 24.6705C124.399 24.4091 124.321 24.1894 124.166 24.0114C124.014 23.8333 123.791 23.6818 123.495 23.5568C123.204 23.4318 122.846 23.3182 122.421 23.2159L121.154 22.8977C120.173 22.6591 119.399 22.286 118.83 21.7784C118.262 21.2708 117.98 20.5871 117.984 19.7273C117.98 19.0227 118.168 18.4072 118.546 17.8807C118.929 17.3542 119.454 16.9432 120.12 16.6477C120.787 16.3523 121.544 16.2045 122.393 16.2045C123.257 16.2045 124.01 16.3523 124.654 16.6477C125.302 16.9432 125.806 17.3542 126.166 17.8807C126.525 18.4072 126.711 19.017 126.722 19.7102H124.364ZM132.399 28V16.3636H136.99C137.869 16.3636 138.619 16.5208 139.24 16.8352C139.865 17.1458 140.341 17.5871 140.667 18.1591C140.996 18.7273 141.161 19.3958 141.161 20.1648C141.161 20.9375 140.994 21.6023 140.661 22.1591C140.328 22.7121 139.845 23.1364 139.212 23.4318C138.583 23.7273 137.822 23.875 136.928 23.875H133.854V21.8977H136.53C137 21.8977 137.39 21.8333 137.701 21.7045C138.011 21.5758 138.242 21.3826 138.394 21.125C138.549 20.8674 138.627 20.5473 138.627 20.1648C138.627 19.7784 138.549 19.4527 138.394 19.1875C138.242 18.9223 138.009 18.7216 137.695 18.5852C137.384 18.4451 136.992 18.375 136.519 18.375H134.86V28H132.399ZM138.684 22.7045L141.576 28H138.86L136.03 22.7045H138.684ZM145.44 16.3636V28H142.979V16.3636H145.44ZM155.26 20.125C155.18 19.8485 155.068 19.6042 154.925 19.392C154.781 19.1761 154.604 18.9943 154.396 18.8466C154.192 18.6951 153.957 18.5795 153.692 18.5C153.43 18.4205 153.14 18.3807 152.822 18.3807C152.228 18.3807 151.705 18.5284 151.254 18.8239C150.807 19.1193 150.459 19.5492 150.209 20.1136C149.959 20.6742 149.834 21.3598 149.834 22.1705C149.834 22.9811 149.957 23.6705 150.203 24.2386C150.449 24.8068 150.798 25.2405 151.248 25.5398C151.699 25.8352 152.231 25.983 152.845 25.983C153.402 25.983 153.877 25.8845 154.271 25.6875C154.669 25.4867 154.972 25.2045 155.18 24.8409C155.392 24.4773 155.498 24.0473 155.498 23.5511L155.998 23.625H152.998V21.7727H157.868V23.2386C157.868 24.2614 157.652 25.1402 157.22 25.875C156.788 26.6061 156.193 27.1705 155.436 27.5682C154.678 27.9621 153.811 28.1591 152.834 28.1591C151.743 28.1591 150.784 27.9186 149.959 27.4375C149.133 26.9527 148.489 26.2652 148.027 25.375C147.568 24.4811 147.339 23.4205 147.339 22.1932C147.339 21.25 147.476 20.4091 147.748 19.6705C148.025 18.928 148.411 18.2992 148.908 17.7841C149.404 17.2689 149.981 16.8769 150.64 16.608C151.3 16.339 152.014 16.2045 152.783 16.2045C153.442 16.2045 154.055 16.3011 154.623 16.4943C155.192 16.6837 155.695 16.9527 156.135 17.3011C156.578 17.6496 156.94 18.0644 157.22 18.5455C157.5 19.0227 157.68 19.5492 157.76 20.125H155.26ZM159.796 28V16.3636H162.256V21.1648H167.25V16.3636H169.705V28H167.25V23.1932H162.256V28H159.796ZM171.37 18.392V16.3636H180.927V18.392H177.364V28H174.933V18.392H171.37ZM184.564 16.3636V17.5909C184.564 17.9394 184.496 18.2955 184.359 18.6591C184.227 19.0189 184.049 19.3598 183.825 19.6818C183.602 20 183.357 20.2708 183.092 20.4943L182.024 19.8636C182.213 19.5644 182.38 19.233 182.524 18.8693C182.672 18.5057 182.746 18.0833 182.746 17.6023V16.3636H184.564ZM192.614 19.7102C192.568 19.2519 192.373 18.8958 192.029 18.642C191.684 18.3883 191.216 18.2614 190.625 18.2614C190.224 18.2614 189.885 18.3182 189.608 18.4318C189.332 18.5417 189.12 18.6951 188.972 18.892C188.828 19.089 188.756 19.3125 188.756 19.5625C188.748 19.7708 188.792 19.9527 188.887 20.108C188.985 20.2633 189.12 20.3977 189.29 20.5114C189.46 20.6212 189.657 20.7178 189.881 20.8011C190.104 20.8807 190.343 20.9489 190.597 21.0057L191.642 21.2557C192.15 21.3693 192.616 21.5208 193.04 21.7102C193.464 21.8996 193.832 22.1326 194.142 22.4091C194.453 22.6856 194.693 23.0114 194.864 23.3864C195.038 23.7614 195.127 24.1913 195.131 24.6761C195.127 25.3883 194.945 26.0057 194.585 26.5284C194.229 27.0473 193.714 27.4508 193.04 27.7386C192.37 28.0227 191.561 28.1648 190.614 28.1648C189.674 28.1648 188.856 28.0208 188.159 27.733C187.466 27.4451 186.924 27.0189 186.534 26.4545C186.148 25.8864 185.945 25.1837 185.926 24.3466H188.307C188.334 24.7367 188.445 25.0625 188.642 25.3239C188.843 25.5814 189.11 25.7765 189.443 25.9091C189.781 26.0379 190.161 26.1023 190.585 26.1023C191.002 26.1023 191.364 26.0417 191.671 25.9205C191.981 25.7992 192.222 25.6307 192.392 25.4148C192.563 25.1989 192.648 24.9508 192.648 24.6705C192.648 24.4091 192.57 24.1894 192.415 24.0114C192.263 23.8333 192.04 23.6818 191.745 23.5568C191.453 23.4318 191.095 23.3182 190.671 23.2159L189.404 22.8977C188.423 22.6591 187.648 22.286 187.08 21.7784C186.512 21.2708 186.229 20.5871 186.233 19.7273C186.229 19.0227 186.417 18.4072 186.796 17.8807C187.178 17.3542 187.703 16.9432 188.37 16.6477C189.036 16.3523 189.794 16.2045 190.642 16.2045C191.506 16.2045 192.26 16.3523 192.904 16.6477C193.551 16.9432 194.055 17.3542 194.415 17.8807C194.775 18.4072 194.96 19.017 194.972 19.7102H192.614ZM497.186 28V16.3636H505.027V18.392H499.646V21.1648H504.623V23.1932H499.646V25.9716H505.049V28H497.186ZM509.369 16.3636L511.716 20.3295H511.807L514.165 16.3636H516.943L513.392 22.1818L517.023 28H514.193L511.807 24.0284H511.716L509.33 28H506.511L510.154 22.1818L506.58 16.3636H509.369ZM518.58 28V16.3636H523.171C524.054 16.3636 524.805 16.5322 525.427 16.8693C526.048 17.2027 526.521 17.6667 526.847 18.2614C527.177 18.8523 527.341 19.5341 527.341 20.3068C527.341 21.0795 527.175 21.7614 526.841 22.3523C526.508 22.9432 526.025 23.4034 525.393 23.733C524.764 24.0625 524.002 24.2273 523.109 24.2273H520.182V22.2557H522.711C523.184 22.2557 523.574 22.1742 523.881 22.0114C524.192 21.8447 524.423 21.6155 524.574 21.3239C524.73 21.0284 524.807 20.6894 524.807 20.3068C524.807 19.9205 524.73 19.5833 524.574 19.2955C524.423 19.0038 524.192 18.7784 523.881 18.6193C523.571 18.4564 523.177 18.375 522.699 18.375H521.04V28H518.58ZM529.019 28V16.3636H531.48V25.9716H536.468V28H529.019ZM548.418 22.1818C548.418 23.4508 548.177 24.5303 547.696 25.4205C547.219 26.3106 546.567 26.9905 545.742 27.4602C544.92 27.9261 543.995 28.1591 542.969 28.1591C541.935 28.1591 541.007 27.9242 540.185 27.4545C539.363 26.9848 538.713 26.3049 538.236 25.4148C537.759 24.5246 537.52 23.447 537.52 22.1818C537.52 20.9129 537.759 19.8333 538.236 18.9432C538.713 18.053 539.363 17.375 540.185 16.9091C541.007 16.4394 541.935 16.2045 542.969 16.2045C543.995 16.2045 544.92 16.4394 545.742 16.9091C546.567 17.375 547.219 18.053 547.696 18.9432C548.177 19.8333 548.418 20.9129 548.418 22.1818ZM545.923 22.1818C545.923 21.3598 545.8 20.6667 545.554 20.1023C545.312 19.5379 544.969 19.1098 544.526 18.8182C544.082 18.5265 543.564 18.3807 542.969 18.3807C542.374 18.3807 541.855 18.5265 541.412 18.8182C540.969 19.1098 540.624 19.5379 540.378 20.1023C540.135 20.6667 540.014 21.3598 540.014 22.1818C540.014 23.0038 540.135 23.697 540.378 24.2614C540.624 24.8258 540.969 25.2538 541.412 25.5455C541.855 25.8371 542.374 25.983 542.969 25.983C543.564 25.983 544.082 25.8371 544.526 25.5455C544.969 25.2538 545.312 24.8258 545.554 24.2614C545.8 23.697 545.923 23.0038 545.923 22.1818ZM550.32 28V16.3636H554.911C555.79 16.3636 556.54 16.5208 557.161 16.8352C557.786 17.1458 558.261 17.5871 558.587 18.1591C558.917 18.7273 559.081 19.3958 559.081 20.1648C559.081 20.9375 558.915 21.6023 558.581 22.1591C558.248 22.7121 557.765 23.1364 557.133 23.4318C556.504 23.7273 555.742 23.875 554.849 23.875H551.775V21.8977H554.451C554.92 21.8977 555.311 21.8333 555.621 21.7045C555.932 21.5758 556.163 21.3826 556.314 21.125C556.47 20.8674 556.547 20.5473 556.547 20.1648C556.547 19.7784 556.47 19.4527 556.314 19.1875C556.163 18.9223 555.93 18.7216 555.616 18.5852C555.305 18.4451 554.913 18.375 554.439 18.375H552.78V28H550.32ZM556.604 22.7045L559.496 28H556.78L553.951 22.7045H556.604ZM560.9 28V16.3636H568.741V18.392H563.36V21.1648H568.338V23.1932H563.36V25.9716H568.764V28H560.9ZM570.777 28V16.3636H575.368C576.247 16.3636 576.997 16.5208 577.618 16.8352C578.243 17.1458 578.718 17.5871 579.044 18.1591C579.374 18.7273 579.538 19.3958 579.538 20.1648C579.538 20.9375 579.372 21.6023 579.038 22.1591C578.705 22.7121 578.222 23.1364 577.589 23.4318C576.961 23.7273 576.199 23.875 575.305 23.875H572.232V21.8977H574.908C575.377 21.8977 575.768 21.8333 576.078 21.7045C576.389 21.5758 576.62 21.3826 576.771 21.125C576.927 20.8674 577.004 20.5473 577.004 20.1648C577.004 19.7784 576.927 19.4527 576.771 19.1875C576.62 18.9223 576.387 18.7216 576.072 18.5852C575.762 18.4451 575.37 18.375 574.896 18.375H573.237V28H570.777ZM577.061 22.7045L579.953 28H577.237L574.408 22.7045H577.061Z" fill="#282875"/>
<path d="M203.127 28V16.3636H207.058C207.967 16.3636 208.714 16.5189 209.297 16.8295C209.88 17.1364 210.312 17.5587 210.592 18.0966C210.873 18.6345 211.013 19.2462 211.013 19.9318C211.013 20.6174 210.873 21.2254 210.592 21.7557C210.312 22.286 209.882 22.7027 209.303 23.0057C208.723 23.3049 207.983 23.4545 207.081 23.4545H203.899V22.1818H207.036C207.657 22.1818 208.157 22.0909 208.536 21.9091C208.918 21.7273 209.195 21.4697 209.365 21.1364C209.539 20.7992 209.627 20.3977 209.627 19.9318C209.627 19.4659 209.539 19.0587 209.365 18.7102C209.191 18.3617 208.913 18.0928 208.53 17.9034C208.147 17.7102 207.642 17.6136 207.013 17.6136H204.536V28H203.127ZM208.604 22.7727L211.467 28H209.831L207.013 22.7727H208.604ZM213.361 28V16.3636H220.384V17.6136H214.77V21.5455H220.02V22.7955H214.77V26.75H220.475V28H213.361ZM232.287 20H230.878C230.795 19.5947 230.649 19.2386 230.441 18.9318C230.236 18.625 229.986 18.3674 229.691 18.1591C229.399 17.947 229.075 17.7879 228.719 17.6818C228.363 17.5758 227.992 17.5227 227.605 17.5227C226.901 17.5227 226.262 17.7008 225.691 18.0568C225.122 18.4129 224.67 18.9375 224.333 19.6307C223.999 20.3239 223.833 21.1742 223.833 22.1818C223.833 23.1894 223.999 24.0398 224.333 24.733C224.67 25.4261 225.122 25.9508 225.691 26.3068C226.262 26.6629 226.901 26.8409 227.605 26.8409C227.992 26.8409 228.363 26.7879 228.719 26.6818C229.075 26.5758 229.399 26.4186 229.691 26.2102C229.986 25.9981 230.236 25.7386 230.441 25.4318C230.649 25.1212 230.795 24.7652 230.878 24.3636H232.287C232.181 24.9583 231.988 25.4905 231.708 25.9602C231.427 26.4299 231.079 26.8295 230.662 27.1591C230.245 27.4848 229.778 27.733 229.259 27.9034C228.744 28.0739 228.192 28.1591 227.605 28.1591C226.613 28.1591 225.73 27.9167 224.958 27.4318C224.185 26.947 223.577 26.2576 223.134 25.3636C222.691 24.4697 222.469 23.4091 222.469 22.1818C222.469 20.9545 222.691 19.8939 223.134 19C223.577 18.1061 224.185 17.4167 224.958 16.9318C225.73 16.447 226.613 16.2045 227.605 16.2045C228.192 16.2045 228.744 16.2898 229.259 16.4602C229.778 16.6307 230.245 16.8807 230.662 17.2102C231.079 17.536 231.427 17.9337 231.708 18.4034C231.988 18.8693 232.181 19.4015 232.287 20ZM244.382 22.1818C244.382 23.4091 244.161 24.4697 243.717 25.3636C243.274 26.2576 242.666 26.947 241.894 27.4318C241.121 27.9167 240.238 28.1591 239.246 28.1591C238.253 28.1591 237.371 27.9167 236.598 27.4318C235.825 26.947 235.217 26.2576 234.774 25.3636C234.331 24.4697 234.11 23.4091 234.11 22.1818C234.11 20.9545 234.331 19.8939 234.774 19C235.217 18.1061 235.825 17.4167 236.598 16.9318C237.371 16.447 238.253 16.2045 239.246 16.2045C240.238 16.2045 241.121 16.447 241.894 16.9318C242.666 17.4167 243.274 18.1061 243.717 19C244.161 19.8939 244.382 20.9545 244.382 22.1818ZM243.019 22.1818C243.019 21.1742 242.85 20.3239 242.513 19.6307C242.18 18.9375 241.727 18.4129 241.155 18.0568C240.587 17.7008 239.95 17.5227 239.246 17.5227C238.541 17.5227 237.903 17.7008 237.331 18.0568C236.763 18.4129 236.31 18.9375 235.973 19.6307C235.64 20.3239 235.473 21.1742 235.473 22.1818C235.473 23.1894 235.64 24.0398 235.973 24.733C236.31 25.4261 236.763 25.9508 237.331 26.3068C237.903 26.6629 238.541 26.8409 239.246 26.8409C239.95 26.8409 240.587 26.6629 241.155 26.3068C241.727 25.9508 242.18 25.4261 242.513 24.733C242.85 24.0398 243.019 23.1894 243.019 22.1818ZM246.752 16.3636H248.433L252.388 26.0227H252.524L256.479 16.3636H258.161V28H256.842V19.1591H256.729L253.092 28H251.82L248.183 19.1591H248.07V28H246.752V16.3636ZM260.986 16.3636H262.668L266.622 26.0227H266.759L270.713 16.3636H272.395V28H271.077V19.1591H270.963L267.327 28H266.054L262.418 19.1591H262.304V28H260.986V16.3636ZM275.22 28V16.3636H282.243V17.6136H276.629V21.5455H281.879V22.7955H276.629V26.75H282.334V28H275.22ZM294.01 16.3636V28H292.646L286.306 18.8636H286.192V28H284.783V16.3636H286.146L292.51 25.5227H292.624V16.3636H294.01ZM300.421 28H296.83V16.3636H300.58C301.709 16.3636 302.674 16.5966 303.477 17.0625C304.28 17.5246 304.896 18.1894 305.324 19.0568C305.752 19.9205 305.966 20.9545 305.966 22.1591C305.966 23.3712 305.75 24.4148 305.318 25.2898C304.887 26.161 304.258 26.8314 303.432 27.3011C302.606 27.767 301.602 28 300.421 28ZM298.239 26.75H300.33C301.292 26.75 302.089 26.5644 302.722 26.1932C303.354 25.822 303.826 25.2936 304.137 24.608C304.447 23.9223 304.602 23.1061 304.602 22.1591C304.602 21.2197 304.449 20.411 304.142 19.733C303.835 19.0511 303.377 18.5284 302.767 18.1648C302.157 17.7973 301.398 17.6136 300.489 17.6136H298.239V26.75ZM308.26 28H306.783L311.056 16.3636H312.51L316.783 28H315.306L311.828 18.2045H311.737L308.26 28ZM308.806 23.4545H314.76V24.7045H308.806V23.4545ZM316.6 17.6136V16.3636H325.327V17.6136H321.668V28H320.259V17.6136H316.6ZM328.911 16.3636V28H327.502V16.3636H328.911ZM341.554 22.1818C341.554 23.4091 341.333 24.4697 340.889 25.3636C340.446 26.2576 339.838 26.947 339.066 27.4318C338.293 27.9167 337.41 28.1591 336.418 28.1591C335.425 28.1591 334.543 27.9167 333.77 27.4318C332.997 26.947 332.389 26.2576 331.946 25.3636C331.503 24.4697 331.281 23.4091 331.281 22.1818C331.281 20.9545 331.503 19.8939 331.946 19C332.389 18.1061 332.997 17.4167 333.77 16.9318C334.543 16.447 335.425 16.2045 336.418 16.2045C337.41 16.2045 338.293 16.447 339.066 16.9318C339.838 17.4167 340.446 18.1061 340.889 19C341.333 19.8939 341.554 20.9545 341.554 22.1818ZM340.191 22.1818C340.191 21.1742 340.022 20.3239 339.685 19.6307C339.351 18.9375 338.899 18.4129 338.327 18.0568C337.759 17.7008 337.122 17.5227 336.418 17.5227C335.713 17.5227 335.075 17.7008 334.503 18.0568C333.935 18.4129 333.482 18.9375 333.145 19.6307C332.812 20.3239 332.645 21.1742 332.645 22.1818C332.645 23.1894 332.812 24.0398 333.145 24.733C333.482 25.4261 333.935 25.9508 334.503 26.3068C335.075 26.6629 335.713 26.8409 336.418 26.8409C337.122 26.8409 337.759 26.6629 338.327 26.3068C338.899 25.9508 339.351 25.4261 339.685 24.733C340.022 24.0398 340.191 23.1894 340.191 22.1818ZM353.151 16.3636V28H351.787L345.446 18.8636H345.333V28H343.923V16.3636H345.287L351.651 25.5227H351.764V16.3636H353.151ZM362.334 19.2727C362.266 18.697 361.989 18.25 361.504 17.9318C361.02 17.6136 360.425 17.4545 359.72 17.4545C359.205 17.4545 358.754 17.5379 358.368 17.7045C357.985 17.8712 357.686 18.1004 357.47 18.392C357.258 18.6837 357.152 19.0152 357.152 19.3864C357.152 19.697 357.226 19.964 357.374 20.1875C357.525 20.4072 357.718 20.5909 357.953 20.7386C358.188 20.8826 358.434 21.0019 358.692 21.0966C358.95 21.1875 359.186 21.2614 359.402 21.3182L360.584 21.6364C360.887 21.7159 361.224 21.8258 361.595 21.9659C361.97 22.1061 362.328 22.2973 362.669 22.5398C363.014 22.7784 363.298 23.0852 363.521 23.4602C363.745 23.8352 363.857 24.2955 363.857 24.8409C363.857 25.4697 363.692 26.0379 363.362 26.5455C363.037 27.053 362.559 27.4564 361.931 27.7557C361.306 28.0549 360.546 28.2045 359.652 28.2045C358.819 28.2045 358.097 28.0701 357.487 27.8011C356.881 27.5322 356.404 27.1572 356.056 26.6761C355.711 26.1951 355.516 25.6364 355.47 25H356.925C356.963 25.4394 357.11 25.803 357.368 26.0909C357.629 26.375 357.959 26.5871 358.357 26.7273C358.758 26.8636 359.19 26.9318 359.652 26.9318C360.19 26.9318 360.673 26.8447 361.101 26.6705C361.529 26.4924 361.868 26.2462 362.118 25.9318C362.368 25.6136 362.493 25.2424 362.493 24.8182C362.493 24.4318 362.385 24.1174 362.169 23.875C361.953 23.6326 361.669 23.4356 361.317 23.2841C360.965 23.1326 360.584 23 360.175 22.8864L358.743 22.4773C357.834 22.2159 357.114 21.8428 356.584 21.358C356.054 20.8731 355.789 20.2386 355.789 19.4545C355.789 18.803 355.965 18.2348 356.317 17.75C356.673 17.2614 357.15 16.8826 357.749 16.6136C358.351 16.3409 359.023 16.2045 359.766 16.2045C360.516 16.2045 361.182 16.339 361.766 16.608C362.349 16.8731 362.811 17.2367 363.152 17.6989C363.497 18.161 363.679 18.6856 363.698 19.2727H362.334ZM373.787 28.1591C373.022 28.1591 372.363 28.0189 371.81 27.7386C371.257 27.4583 370.831 27.0739 370.531 26.5852C370.232 26.0966 370.083 25.5379 370.083 24.9091C370.083 24.4242 370.185 23.9943 370.389 23.6193C370.598 23.2405 370.884 22.8902 371.247 22.5682C371.615 22.2424 372.037 21.9167 372.514 21.5909L374.196 20.3409C374.526 20.125 374.789 19.8939 374.986 19.6477C375.187 19.4015 375.287 19.0795 375.287 18.6818C375.287 18.3864 375.156 18.1004 374.895 17.8239C374.637 17.5473 374.298 17.4091 373.878 17.4091C373.583 17.4091 373.321 17.4848 373.094 17.6364C372.87 17.7841 372.694 17.9735 372.566 18.2045C372.441 18.4318 372.378 18.6667 372.378 18.9091C372.378 19.1818 372.452 19.4583 372.6 19.7386C372.751 20.0152 372.942 20.2992 373.173 20.5909C373.408 20.8788 373.651 21.1742 373.901 21.4773L379.242 28H377.628L373.219 22.6818C372.81 22.1894 372.439 21.7424 372.105 21.3409C371.772 20.9394 371.507 20.5436 371.31 20.1534C371.113 19.7633 371.014 19.3409 371.014 18.8864C371.014 18.3636 371.13 17.9053 371.361 17.5114C371.596 17.1136 371.923 16.8049 372.344 16.5852C372.768 16.3617 373.264 16.25 373.833 16.25C374.416 16.25 374.918 16.3636 375.338 16.5909C375.759 16.8144 376.083 17.1117 376.31 17.483C376.537 17.8504 376.651 18.25 376.651 18.6818C376.651 19.2386 376.512 19.7216 376.236 20.1307C375.959 20.5398 375.583 20.9205 375.105 21.2727L372.787 23C372.264 23.3864 371.91 23.7614 371.725 24.125C371.539 24.4886 371.446 24.75 371.446 24.9091C371.446 25.2727 371.541 25.6117 371.73 25.9261C371.92 26.2405 372.187 26.4943 372.531 26.6875C372.876 26.8807 373.28 26.9773 373.742 26.9773C374.181 26.9773 374.609 26.8845 375.026 26.6989C375.442 26.5095 375.819 26.2367 376.156 25.8807C376.497 25.5246 376.766 25.0966 376.963 24.5966C377.164 24.0966 377.264 23.5341 377.264 22.9091H378.56C378.56 23.6818 378.471 24.3125 378.293 24.8011C378.115 25.2898 377.914 25.6723 377.691 25.9489C377.467 26.2254 377.287 26.4318 377.151 26.5682C377.105 26.625 377.064 26.6818 377.026 26.7386C376.988 26.7955 376.946 26.8523 376.901 26.9091C376.526 27.3295 376.052 27.6439 375.48 27.8523C374.908 28.0568 374.344 28.1591 373.787 28.1591ZM394.771 20H393.362C393.279 19.5947 393.133 19.2386 392.925 18.9318C392.72 18.625 392.47 18.3674 392.175 18.1591C391.883 17.947 391.559 17.7879 391.203 17.6818C390.847 17.5758 390.476 17.5227 390.09 17.5227C389.385 17.5227 388.747 17.7008 388.175 18.0568C387.607 18.4129 387.154 18.9375 386.817 19.6307C386.484 20.3239 386.317 21.1742 386.317 22.1818C386.317 23.1894 386.484 24.0398 386.817 24.733C387.154 25.4261 387.607 25.9508 388.175 26.3068C388.747 26.6629 389.385 26.8409 390.09 26.8409C390.476 26.8409 390.847 26.7879 391.203 26.6818C391.559 26.5758 391.883 26.4186 392.175 26.2102C392.47 25.9981 392.72 25.7386 392.925 25.4318C393.133 25.1212 393.279 24.7652 393.362 24.3636H394.771C394.665 24.9583 394.472 25.4905 394.192 25.9602C393.912 26.4299 393.563 26.8295 393.146 27.1591C392.73 27.4848 392.262 27.733 391.743 27.9034C391.228 28.0739 390.677 28.1591 390.09 28.1591C389.097 28.1591 388.215 27.9167 387.442 27.4318C386.669 26.947 386.061 26.2576 385.618 25.3636C385.175 24.4697 384.953 23.4091 384.953 22.1818C384.953 20.9545 385.175 19.8939 385.618 19C386.061 18.1061 386.669 17.4167 387.442 16.9318C388.215 16.447 389.097 16.2045 390.09 16.2045C390.677 16.2045 391.228 16.2898 391.743 16.4602C392.262 16.6307 392.73 16.8807 393.146 17.2102C393.563 17.536 393.912 17.9337 394.192 18.4034C394.472 18.8693 394.665 19.4015 394.771 20ZM406.867 22.1818C406.867 23.4091 406.645 24.4697 406.202 25.3636C405.759 26.2576 405.151 26.947 404.378 27.4318C403.605 27.9167 402.723 28.1591 401.73 28.1591C400.738 28.1591 399.855 27.9167 399.083 27.4318C398.31 26.947 397.702 26.2576 397.259 25.3636C396.816 24.4697 396.594 23.4091 396.594 22.1818C396.594 20.9545 396.816 19.8939 397.259 19C397.702 18.1061 398.31 17.4167 399.083 16.9318C399.855 16.447 400.738 16.2045 401.73 16.2045C402.723 16.2045 403.605 16.447 404.378 16.9318C405.151 17.4167 405.759 18.1061 406.202 19C406.645 19.8939 406.867 20.9545 406.867 22.1818ZM405.503 22.1818C405.503 21.1742 405.334 20.3239 404.997 19.6307C404.664 18.9375 404.211 18.4129 403.639 18.0568C403.071 17.7008 402.435 17.5227 401.73 17.5227C401.026 17.5227 400.387 17.7008 399.816 18.0568C399.247 18.4129 398.795 18.9375 398.458 19.6307C398.124 20.3239 397.958 21.1742 397.958 22.1818C397.958 23.1894 398.124 24.0398 398.458 24.733C398.795 25.4261 399.247 25.9508 399.816 26.3068C400.387 26.6629 401.026 26.8409 401.73 26.8409C402.435 26.8409 403.071 26.6629 403.639 26.3068C404.211 25.9508 404.664 25.4261 404.997 24.733C405.334 24.0398 405.503 23.1894 405.503 22.1818ZM409.236 16.3636H410.918L414.872 26.0227H415.009L418.963 16.3636H420.645V28H419.327V19.1591H419.213L415.577 28H414.304L410.668 19.1591H410.554V28H409.236V16.3636ZM423.47 28V16.3636H427.402C428.315 16.3636 429.061 16.5284 429.641 16.858C430.224 17.1837 430.656 17.625 430.936 18.1818C431.217 18.7386 431.357 19.3598 431.357 20.0455C431.357 20.7311 431.217 21.3542 430.936 21.9148C430.66 22.4754 430.232 22.9223 429.652 23.2557C429.073 23.5852 428.33 23.75 427.425 23.75H424.607V22.5H427.379C428.004 22.5 428.506 22.392 428.885 22.1761C429.264 21.9602 429.539 21.6686 429.709 21.3011C429.883 20.9299 429.97 20.5114 429.97 20.0455C429.97 19.5795 429.883 19.1629 429.709 18.7955C429.539 18.428 429.262 18.1402 428.879 17.9318C428.497 17.7197 427.989 17.6136 427.357 17.6136H424.879V28H423.47ZM433.627 28V16.3636H435.036V26.75H440.445V28H433.627ZM444.036 16.3636V28H442.627V16.3636H444.036ZM447.338 28H445.861L450.134 16.3636H451.588L455.861 28H454.384L450.906 18.2045H450.816L447.338 28ZM447.884 23.4545H453.838V24.7045H447.884V23.4545ZM466.901 16.3636V28H465.537L459.196 18.8636H459.083V28H457.673V16.3636H459.037L465.401 25.5227H465.514V16.3636H466.901ZM479.084 20H477.675C477.592 19.5947 477.446 19.2386 477.237 18.9318C477.033 18.625 476.783 18.3674 476.487 18.1591C476.196 17.947 475.872 17.7879 475.516 17.6818C475.16 17.5758 474.789 17.5227 474.402 17.5227C473.698 17.5227 473.059 17.7008 472.487 18.0568C471.919 18.4129 471.467 18.9375 471.129 19.6307C470.796 20.3239 470.629 21.1742 470.629 22.1818C470.629 23.1894 470.796 24.0398 471.129 24.733C471.467 25.4261 471.919 25.9508 472.487 26.3068C473.059 26.6629 473.698 26.8409 474.402 26.8409C474.789 26.8409 475.16 26.7879 475.516 26.6818C475.872 26.5758 476.196 26.4186 476.487 26.2102C476.783 25.9981 477.033 25.7386 477.237 25.4318C477.446 25.1212 477.592 24.7652 477.675 24.3636H479.084C478.978 24.9583 478.785 25.4905 478.504 25.9602C478.224 26.4299 477.876 26.8295 477.459 27.1591C477.042 27.4848 476.575 27.733 476.056 27.9034C475.54 28.0739 474.989 28.1591 474.402 28.1591C473.41 28.1591 472.527 27.9167 471.754 27.4318C470.982 26.947 470.374 26.2576 469.931 25.3636C469.487 24.4697 469.266 23.4091 469.266 22.1818C469.266 20.9545 469.487 19.8939 469.931 19C470.374 18.1061 470.982 17.4167 471.754 16.9318C472.527 16.447 473.41 16.2045 474.402 16.2045C474.989 16.2045 475.54 16.2898 476.056 16.4602C476.575 16.6307 477.042 16.8807 477.459 17.2102C477.876 17.536 478.224 17.9337 478.504 18.4034C478.785 18.8693 478.978 19.4015 479.084 20ZM481.361 28V16.3636H488.384V17.6136H482.77V21.5455H488.02V22.7955H482.77V26.75H488.475V28H481.361Z" fill="#529D8E"/>
</svg>
